<svg width="653" height="198" viewBox="0 0 653 198" fill="none" xmlns="http://www.w3.org/2000/svg">
<path d="M0 198C0 198 39.5758 161.971 59.3636 129.997C79.1515 98.0231 98.9394 15.5536 118.727 6.15488C138.515 -3.24387 158.303 61.2574 178.091 73.6048C197.879 85.9521 217.667 82.3861 237.455 80.2392C257.242 78.0922 277.03 72.241 296.818 60.7229C316.606 49.2049 336.394 20.7782 356.182 11.1307C375.97 1.48315 395.758 -3.52031 415.545 2.83767C435.333 9.19565 455.121 34.7197 474.909 49.2786C494.697 63.8374 514.485 77.8434 534.273 90.1908C554.061 102.538 573.848 130.089 593.636 123.363C613.424 116.636 653 49.8314 653 49.8314" stroke="#108C1E" stroke-width="2"/>
</svg>
